<?xml version="1.0" encoding="UTF-8" standalone="no"?>
<!DOCTYPE svg PUBLIC "-//W3C//DTD SVG 1.1//EN"
 "http://www.w3.org/Graphics/SVG/1.1/DTD/svg11.dtd">
<!-- Generated by graphviz version 2.49.3 (20211023.0002)
 -->
<!-- Pages: 1 -->
<svg width="1783pt" height="1323pt"
 viewBox="0.00 0.00 1782.53 1323.00" xmlns="http://www.w3.org/2000/svg" xmlns:xlink="http://www.w3.org/1999/xlink">
<g id="graph0" class="graph" transform="scale(1 1) rotate(0) translate(4 1319)">
<polygon fill="white" stroke="transparent" points="-4,4 -4,-1319 1778.53,-1319 1778.53,4 -4,4"/>
<g id="clust1" class="cluster">
<title>cluster&#45;nid&#45;02</title>
<polygon fill="none" stroke="#cccccc" points="8,-291 8,-361 435.54,-361 435.54,-291 8,-291"/>
</g>
<g id="clust2" class="cluster">
<title>cluster&#45;nid&#45;03</title>
<polygon fill="none" stroke="#cccccc" points="8,-206 8,-276 435.54,-276 435.54,-206 8,-206"/>
</g>
<g id="clust5" class="cluster">
<title>cluster&#45;nid&#45;06</title>
<polygon fill="none" stroke="#cccccc" points="355.77,-61 355.77,-131 445.31,-131 445.31,-61 355.77,-61"/>
</g>
<g id="clust6" class="cluster">
<title>cluster&#45;nid&#45;07</title>
<polygon fill="none" stroke="#cccccc" points="1102,-1223 1102,-1293 1476.99,-1293 1476.99,-1223 1102,-1223"/>
</g>
<g id="clust7" class="cluster">
<title>cluster&#45;nid&#45;08</title>
<polygon fill="none" stroke="#cccccc" points="1397.22,-684 1397.22,-754 1766.53,-754 1766.53,-684 1397.22,-684"/>
</g>
<g id="clust8" class="cluster">
<title>cluster&#45;nid&#45;09</title>
<polygon fill="none" stroke="#cccccc" points="1397.22,-1010 1397.22,-1080 1766.53,-1080 1766.53,-1010 1397.22,-1010"/>
</g>
<g id="clust18" class="cluster">
<title>cluster&#45;nid&#45;12&#45;out</title>
<polygon fill="none" stroke="#cccccc" points="320.54,-1031 320.54,-1115 480.54,-1115 480.54,-1031 320.54,-1031"/>
</g>
<g id="clust20" class="cluster">
<title>cluster&#45;nid&#45;13&#45;out</title>
<polygon fill="none" stroke="#cccccc" points="308.54,-1131 308.54,-1215 492.54,-1215 492.54,-1131 308.54,-1131"/>
</g>
<g id="clust21" class="cluster">
<title>cluster&#45;nid&#45;14&#45;in</title>
<polygon fill="none" stroke="#cccccc" points="704.54,-468 704.54,-552 885.54,-552 885.54,-468 704.54,-468"/>
</g>
<g id="clust24" class="cluster">
<title>cluster&#45;nid&#45;16&#45;in</title>
<polygon fill="none" stroke="#cccccc" points="704.54,-284 704.54,-368 885.54,-368 885.54,-284 704.54,-284"/>
</g>
<g id="clust26" class="cluster">
<title>cluster&#45;nid&#45;17&#45;in</title>
<polygon fill="none" stroke="#cccccc" points="703.54,-100 703.54,-184 886.54,-184 886.54,-100 703.54,-100"/>
</g>
<g id="clust29" class="cluster">
<title>cluster&#45;nid&#45;18&#45;out</title>
<polygon fill="none" stroke="#cccccc" points="310.04,-1223 310.04,-1307 491.04,-1307 491.04,-1223 310.04,-1223"/>
</g>
<g id="clust31" class="cluster">
<title>cluster&#45;nid&#45;19&#45;out</title>
<polygon fill="none" stroke="#cccccc" points="318.54,-553 318.54,-637 482.54,-637 482.54,-553 318.54,-553"/>
</g>
<g id="clust33" class="cluster">
<title>cluster&#45;nid&#45;1a&#45;out</title>
<polygon fill="none" stroke="#cccccc" points="310.04,-924 310.04,-1008 491.04,-1008 491.04,-924 310.04,-924"/>
</g>
<g id="clust34" class="cluster">
<title>cluster&#45;nid&#45;1b&#45;in</title>
<polygon fill="none" stroke="#cccccc" points="704.54,-192 704.54,-276 1172,-276 1172,-192 704.54,-192"/>
</g>
<g id="clust35" class="cluster">
<title>cluster&#45;nid&#45;1b&#45;out</title>
<polygon fill="none" stroke="#cccccc" points="17.77,-802 17.77,-886 491.04,-886 491.04,-802 17.77,-802"/>
</g>
<g id="clust38" class="cluster">
<title>cluster&#45;nid&#45;1d&#45;out</title>
<polygon fill="none" stroke="#cccccc" points="297.54,-649 297.54,-733 503.54,-733 503.54,-649 297.54,-649"/>
</g>
<g id="clust39" class="cluster">
<title>cluster&#45;nid&#45;1e&#45;in</title>
<polygon fill="none" stroke="#cccccc" points="704.54,-8 704.54,-92 885.54,-92 885.54,-8 704.54,-8"/>
</g>
<g id="clust43" class="cluster">
<title>cluster&#45;nid&#45;21&#45;in</title>
<polygon fill="none" stroke="#cccccc" points="703.54,-376 703.54,-460 886.54,-460 886.54,-376 703.54,-376"/>
</g>
<g id="clust45" class="cluster">
<title>cluster&#45;nid&#45;22</title>
<polygon fill="none" stroke="#cccccc" points="703.85,-886 703.85,-1204 1187.45,-1204 1187.45,-886 703.85,-886"/>
</g>
<g id="clust46" class="cluster">
<title>cluster&#45;nid&#45;23</title>
<polygon fill="none" stroke="#cccccc" points="703.85,-560 703.85,-878 1187.45,-878 1187.45,-560 703.85,-560"/>
</g>
<g id="clust47" class="cluster">
<title>cluster&#45;nid&#45;24</title>
<polygon fill="none" stroke="#cccccc" points="733.13,-1212 733.13,-1304 856.95,-1304 856.95,-1212 733.13,-1212"/>
</g>
<!-- nid&#45;02 -->
<g id="node1" class="node">
<title>nid&#45;02</title>
<ellipse fill="none" stroke="blue" cx="52.77" cy="-326" rx="36.54" ry="26.74"/>
<text text-anchor="middle" x="52.77" y="-329.8" font-family="Times,serif" font-size="14.00">0x02</text>
<text text-anchor="middle" x="52.77" y="-314.8" font-family="Times,serif" font-size="14.00">Stereo</text>
</g>
<!-- nid&#45;02&#45;ampout -->
<g id="node2" class="node">
<title>nid&#45;02&#45;ampout</title>
<polygon fill="none" stroke="#0000ff" points="427.54,-326 387.04,-344 387.04,-308 427.54,-326"/>
</g>
<!-- nid&#45;02&#45;&gt;nid&#45;02&#45;ampout -->
<g id="edge1" class="edge">
<title>nid&#45;02&#45;&gt;nid&#45;02&#45;ampout</title>
<path fill="none" stroke="#0000ff" d="M89.79,-326C163.04,-326 327,-326 381.52,-326"/>
<polygon fill="#0000ff" stroke="#0000ff" points="381.75,-327.75 386.75,-326 381.75,-324.25 381.75,-327.75"/>
</g>
<!-- nid&#45;14&#45;in -->
<g id="node17" class="node">
<title>nid&#45;14&#45;in</title>
<polygon fill="none" stroke="green" points="877.54,-544 712.54,-544 712.54,-476 877.54,-476 877.54,-544"/>
<text text-anchor="middle" x="795.04" y="-528.8" font-family="Times,serif" font-size="14.00">0x14</text>
<text text-anchor="middle" x="795.04" y="-513.8" font-family="Times,serif" font-size="14.00">[N/A] Speaker at Ext Rear</text>
<text text-anchor="middle" x="795.04" y="-498.8" font-family="Times,serif" font-size="14.00">Stereo</text>
<text text-anchor="middle" x="795.04" y="-483.8" font-family="Times,serif" font-size="14.00">OUT EAPD Detect</text>
</g>
<!-- nid&#45;02&#45;ampout&#45;&gt;nid&#45;14&#45;in -->
<g id="edge9" class="edge">
<title>nid&#45;02&#45;ampout&#45;&gt;nid&#45;14&#45;in</title>
<path fill="none" stroke="#333333" d="M414.6,-332.12C460.21,-353.51 614.95,-426.05 712.17,-471.62"/>
<polygon fill="#333333" stroke="#333333" points="710.85,-474.87 721.39,-475.94 713.82,-468.53 710.85,-474.87"/>
</g>
<!-- nid&#45;16&#45;in -->
<g id="node18" class="node">
<title>nid&#45;16&#45;in</title>
<polygon fill="none" stroke="green" points="877.54,-360 712.54,-360 712.54,-292 877.54,-292 877.54,-360"/>
<text text-anchor="middle" x="795.04" y="-344.8" font-family="Times,serif" font-size="14.00">0x16</text>
<text text-anchor="middle" x="795.04" y="-329.8" font-family="Times,serif" font-size="14.00">[N/A] Speaker at Ext Rear</text>
<text text-anchor="middle" x="795.04" y="-314.8" font-family="Times,serif" font-size="14.00">Stereo</text>
<text text-anchor="middle" x="795.04" y="-299.8" font-family="Times,serif" font-size="14.00">OUT HP Detect</text>
</g>
<!-- nid&#45;02&#45;ampout&#45;&gt;nid&#45;16&#45;in -->
<g id="edge10" class="edge">
<title>nid&#45;02&#45;ampout&#45;&gt;nid&#45;16&#45;in</title>
<path fill="none" stroke="#333333" d="M427.6,-326C482.58,-326 612.74,-326 702.15,-326"/>
<polygon fill="#333333" stroke="#333333" points="702.3,-329.5 712.3,-326 702.3,-322.5 702.3,-329.5"/>
</g>
<!-- nid&#45;17&#45;in -->
<g id="node19" class="node">
<title>nid&#45;17&#45;in</title>
<polygon fill="none" stroke="green" points="878.54,-176 711.54,-176 711.54,-108 878.54,-108 878.54,-176"/>
<text text-anchor="middle" x="795.04" y="-160.8" font-family="Times,serif" font-size="14.00">0x17</text>
<text text-anchor="middle" x="795.04" y="-145.8" font-family="Times,serif" font-size="14.00">[Fixed] Speaker at Int N/A</text>
<text text-anchor="middle" x="795.04" y="-130.8" font-family="Times,serif" font-size="14.00">Stereo</text>
<text text-anchor="middle" x="795.04" y="-115.8" font-family="Times,serif" font-size="14.00">OUT HP Detect</text>
</g>
<!-- nid&#45;02&#45;ampout&#45;&gt;nid&#45;17&#45;in -->
<g id="edge12" class="edge">
<title>nid&#45;02&#45;ampout&#45;&gt;nid&#45;17&#45;in</title>
<path fill="none" stroke="gray" stroke-dasharray="5,2" d="M414.78,-320.13C434.27,-311.46 471.81,-294.69 503.54,-280 574.96,-246.93 655.81,-208.44 714.04,-180.53"/>
<polygon fill="gray" stroke="gray" points="715.69,-183.62 723.19,-176.14 712.66,-177.31 715.69,-183.62"/>
</g>
<!-- nid&#45;1b&#45;in -->
<g id="node23" class="node">
<title>nid&#45;1b&#45;in</title>
<polygon fill="none" stroke="green" points="877.54,-268 712.54,-268 712.54,-200 877.54,-200 877.54,-268"/>
<text text-anchor="middle" x="795.04" y="-252.8" font-family="Times,serif" font-size="14.00">0x1b</text>
<text text-anchor="middle" x="795.04" y="-237.8" font-family="Times,serif" font-size="14.00">[N/A] Speaker at Ext Rear</text>
<text text-anchor="middle" x="795.04" y="-222.8" font-family="Times,serif" font-size="14.00">Stereo</text>
<text text-anchor="middle" x="795.04" y="-207.8" font-family="Times,serif" font-size="14.00">IN OUT EAPD Detect</text>
</g>
<!-- nid&#45;02&#45;ampout&#45;&gt;nid&#45;1b&#45;in -->
<g id="edge17" class="edge">
<title>nid&#45;02&#45;ampout&#45;&gt;nid&#45;1b&#45;in</title>
<path fill="none" stroke="#333333" d="M418.66,-321.99C467.11,-310.63 607.82,-277.65 702.52,-255.45"/>
<polygon fill="#333333" stroke="#333333" points="703.46,-258.83 712.4,-253.14 701.86,-252.01 703.46,-258.83"/>
</g>
<!-- nid&#45;21&#45;in -->
<g id="node29" class="node">
<title>nid&#45;21&#45;in</title>
<polygon fill="none" stroke="green" points="878.54,-452 711.54,-452 711.54,-384 878.54,-384 878.54,-452"/>
<text text-anchor="middle" x="795.04" y="-436.8" font-family="Times,serif" font-size="14.00">0x21</text>
<text text-anchor="middle" x="795.04" y="-421.8" font-family="Times,serif" font-size="14.00">[Jack] HP Out at Ext Right</text>
<text text-anchor="middle" x="795.04" y="-406.8" font-family="Times,serif" font-size="14.00">Stereo</text>
<text text-anchor="middle" x="795.04" y="-391.8" font-family="Times,serif" font-size="14.00">OUT HP EAPD Detect</text>
</g>
<!-- nid&#45;02&#45;ampout&#45;&gt;nid&#45;21&#45;in -->
<g id="edge20" class="edge">
<title>nid&#45;02&#45;ampout&#45;&gt;nid&#45;21&#45;in</title>
<path fill="none" stroke="#333333" d="M418.66,-330.01C466.89,-341.32 606.58,-374.06 701.27,-396.25"/>
<polygon fill="#333333" stroke="#333333" points="700.61,-399.69 711.14,-398.57 702.21,-392.88 700.61,-399.69"/>
</g>
<!-- nid&#45;03 -->
<g id="node3" class="node">
<title>nid&#45;03</title>
<ellipse fill="none" stroke="blue" cx="52.77" cy="-241" rx="36.54" ry="26.74"/>
<text text-anchor="middle" x="52.77" y="-244.8" font-family="Times,serif" font-size="14.00">0x03</text>
<text text-anchor="middle" x="52.77" y="-229.8" font-family="Times,serif" font-size="14.00">Stereo</text>
</g>
<!-- nid&#45;03&#45;ampout -->
<g id="node4" class="node">
<title>nid&#45;03&#45;ampout</title>
<polygon fill="none" stroke="#0000ff" points="427.54,-241 387.04,-259 387.04,-223 427.54,-241"/>
</g>
<!-- nid&#45;03&#45;&gt;nid&#45;03&#45;ampout -->
<g id="edge2" class="edge">
<title>nid&#45;03&#45;&gt;nid&#45;03&#45;ampout</title>
<path fill="none" stroke="#0000ff" d="M89.79,-241C163.04,-241 327,-241 381.52,-241"/>
<polygon fill="#0000ff" stroke="#0000ff" points="381.75,-242.75 386.75,-241 381.75,-239.25 381.75,-242.75"/>
</g>
<!-- nid&#45;03&#45;ampout&#45;&gt;nid&#45;16&#45;in -->
<g id="edge11" class="edge">
<title>nid&#45;03&#45;ampout&#45;&gt;nid&#45;16&#45;in</title>
<path fill="none" stroke="gray" stroke-dasharray="5,2" d="M419.17,-244.82C468.08,-255.41 608.09,-285.73 702.46,-306.17"/>
<polygon fill="gray" stroke="gray" points="701.79,-309.6 712.3,-308.3 703.27,-302.76 701.79,-309.6"/>
</g>
<!-- nid&#45;03&#45;ampout&#45;&gt;nid&#45;17&#45;in -->
<g id="edge13" class="edge">
<title>nid&#45;03&#45;ampout&#45;&gt;nid&#45;17&#45;in</title>
<path fill="none" stroke="#333333" d="M418.4,-236.75C466.45,-224.63 606.65,-189.26 701.51,-165.34"/>
<polygon fill="#333333" stroke="#333333" points="702.56,-168.68 711.4,-162.84 700.85,-161.9 702.56,-168.68"/>
</g>
<!-- nid&#45;03&#45;ampout&#45;&gt;nid&#45;1b&#45;in -->
<g id="edge18" class="edge">
<title>nid&#45;03&#45;ampout&#45;&gt;nid&#45;1b&#45;in</title>
<path fill="none" stroke="gray" stroke-dasharray="5,2" d="M426.69,-240.55C481.1,-239.58 612.1,-237.24 702,-235.64"/>
<polygon fill="gray" stroke="gray" points="702.27,-239.14 712.2,-235.46 702.14,-232.14 702.27,-239.14"/>
</g>
<!-- nid&#45;03&#45;ampout&#45;&gt;nid&#45;21&#45;in -->
<g id="edge21" class="edge">
<title>nid&#45;03&#45;ampout&#45;&gt;nid&#45;21&#45;in</title>
<path fill="none" stroke="gray" stroke-dasharray="5,2" d="M414.6,-246.89C459.76,-267.26 611.9,-335.86 709.27,-379.77"/>
<polygon fill="gray" stroke="gray" points="707.96,-383.02 718.51,-383.94 710.84,-376.64 707.96,-383.02"/>
</g>
<!-- nid&#45;06 -->
<g id="node5" class="node">
<title>nid&#45;06</title>
<ellipse fill="none" stroke="blue" cx="400.54" cy="-96" rx="36.54" ry="26.74"/>
<text text-anchor="middle" x="400.54" y="-99.8" font-family="Times,serif" font-size="14.00">0x06</text>
<text text-anchor="middle" x="400.54" y="-84.8" font-family="Times,serif" font-size="14.00">Stereo</text>
</g>
<!-- nid&#45;06&#45;&gt;nid&#45;17&#45;in -->
<g id="edge14" class="edge">
<title>nid&#45;06&#45;&gt;nid&#45;17&#45;in</title>
<path fill="none" stroke="gray" stroke-dasharray="5,2" d="M437.06,-100.16C496.18,-107.09 616.59,-121.2 701.16,-131.11"/>
<polygon fill="gray" stroke="gray" points="700.95,-134.61 711.29,-132.3 701.77,-127.66 700.95,-134.61"/>
</g>
<!-- nid&#45;1e&#45;in -->
<g id="node28" class="node">
<title>nid&#45;1e&#45;in</title>
<polygon fill="none" stroke="green" points="877.54,-84 712.54,-84 712.54,-16 877.54,-16 877.54,-84"/>
<text text-anchor="middle" x="795.04" y="-68.8" font-family="Times,serif" font-size="14.00">0x1e</text>
<text text-anchor="middle" x="795.04" y="-53.8" font-family="Times,serif" font-size="14.00">[N/A] Speaker at Ext Rear</text>
<text text-anchor="middle" x="795.04" y="-38.8" font-family="Times,serif" font-size="14.00">Stereo</text>
<text text-anchor="middle" x="795.04" y="-23.8" font-family="Times,serif" font-size="14.00">OUT</text>
</g>
<!-- nid&#45;06&#45;&gt;nid&#45;1e&#45;in -->
<g id="edge19" class="edge">
<title>nid&#45;06&#45;&gt;nid&#45;1e&#45;in</title>
<path fill="none" stroke="#333333" d="M437.06,-91.84C496.45,-84.88 617.7,-70.67 702.33,-60.75"/>
<polygon fill="#333333" stroke="#333333" points="702.93,-64.2 712.46,-59.56 702.12,-57.25 702.93,-64.2"/>
</g>
<!-- nid&#45;07 -->
<g id="node6" class="node">
<title>nid&#45;07</title>
<ellipse fill="none" stroke="red" cx="1432.22" cy="-1258" rx="36.54" ry="26.74"/>
<text text-anchor="middle" x="1432.22" y="-1261.8" font-family="Times,serif" font-size="14.00">0x07</text>
<text text-anchor="middle" x="1432.22" y="-1246.8" font-family="Times,serif" font-size="14.00">Stereo</text>
</g>
<!-- nid&#45;07&#45;ampin -->
<g id="node7" class="node">
<title>nid&#45;07&#45;ampin</title>
<polygon fill="none" stroke="#c8c8c8" points="1164,-1258 1123.5,-1276 1123.5,-1240 1164,-1258"/>
</g>
<!-- nid&#45;07&#45;ampin&#45;&gt;nid&#45;07 -->
<g id="edge3" class="edge">
<title>nid&#45;07&#45;ampin&#45;&gt;nid&#45;07</title>
<path fill="none" stroke="#c8c8c8" d="M1164.02,-1258C1215.14,-1258 1329.03,-1258 1390.32,-1258"/>
<polygon fill="#c8c8c8" stroke="#c8c8c8" points="1390.36,-1259.75 1395.36,-1258 1390.36,-1256.25 1390.36,-1259.75"/>
</g>
<!-- nid&#45;24 -->
<g id="node8" class="node">
<title>nid&#45;24</title>
<polygon fill="none" stroke="black" points="848.86,-1296 763.24,-1296 741.22,-1220 826.84,-1220 848.86,-1296"/>
<text text-anchor="middle" x="795.04" y="-1261.8" font-family="Times,serif" font-size="14.00">0x24</text>
<text text-anchor="middle" x="795.04" y="-1246.8" font-family="Times,serif" font-size="14.00">Stereo</text>
</g>
<!-- nid&#45;24&#45;&gt;nid&#45;07&#45;ampin -->
<g id="edge4" class="edge">
<title>nid&#45;24&#45;&gt;nid&#45;07&#45;ampin</title>
<path fill="none" stroke="#333333" d="M838.07,-1258C910.53,-1258 1056.63,-1258 1113.04,-1258"/>
<polygon fill="#333333" stroke="#333333" points="1113.37,-1261.5 1123.37,-1258 1113.37,-1254.5 1113.37,-1261.5"/>
</g>
<!-- nid&#45;08 -->
<g id="node9" class="node">
<title>nid&#45;08</title>
<ellipse fill="none" stroke="red" cx="1721.76" cy="-719" rx="36.54" ry="26.74"/>
<text text-anchor="middle" x="1721.76" y="-722.8" font-family="Times,serif" font-size="14.00">0x08</text>
<text text-anchor="middle" x="1721.76" y="-707.8" font-family="Times,serif" font-size="14.00">Stereo</text>
</g>
<!-- nid&#45;08&#45;ampin -->
<g id="node10" class="node">
<title>nid&#45;08&#45;ampin</title>
<polygon fill="none" stroke="#3232f1" points="1459.22,-719 1418.72,-737 1418.72,-701 1459.22,-719"/>
</g>
<!-- nid&#45;08&#45;ampin&#45;&gt;nid&#45;08 -->
<g id="edge5" class="edge">
<title>nid&#45;08&#45;ampin&#45;&gt;nid&#45;08</title>
<path fill="none" stroke="#3232f1" d="M1459.25,-719C1509.3,-719 1619.34,-719 1679.5,-719"/>
<polygon fill="#3232f1" stroke="#3232f1" points="1679.81,-720.75 1684.81,-719 1679.81,-717.25 1679.81,-720.75"/>
</g>
<!-- nid&#45;23 -->
<g id="node11" class="node">
<title>nid&#45;23</title>
<polygon fill="none" stroke="black" points="1179.41,-719 1158.2,-750.05 1115.79,-750.05 1094.58,-719 1115.79,-687.95 1158.2,-687.95 1179.41,-719"/>
<text text-anchor="middle" x="1137" y="-722.8" font-family="Times,serif" font-size="14.00">0x23</text>
<text text-anchor="middle" x="1137" y="-707.8" font-family="Times,serif" font-size="14.00">Stereo</text>
</g>
<!-- nid&#45;23&#45;&gt;nid&#45;08&#45;ampin -->
<g id="edge6" class="edge">
<title>nid&#45;23&#45;&gt;nid&#45;08&#45;ampin</title>
<path fill="none" stroke="#333333" d="M1179.7,-719C1242.48,-719 1359.16,-719 1408.38,-719"/>
<polygon fill="#333333" stroke="#333333" points="1408.6,-722.5 1418.6,-719 1408.6,-715.5 1408.6,-722.5"/>
</g>
<!-- nid&#45;09 -->
<g id="node12" class="node">
<title>nid&#45;09</title>
<ellipse fill="none" stroke="red" cx="1721.76" cy="-1045" rx="36.54" ry="26.74"/>
<text text-anchor="middle" x="1721.76" y="-1048.8" font-family="Times,serif" font-size="14.00">0x09</text>
<text text-anchor="middle" x="1721.76" y="-1033.8" font-family="Times,serif" font-size="14.00">Stereo</text>
</g>
<!-- nid&#45;09&#45;ampin -->
<g id="node13" class="node">
<title>nid&#45;09&#45;ampin</title>
<polygon fill="none" stroke="#c8c8c8" points="1459.22,-1045 1418.72,-1063 1418.72,-1027 1459.22,-1045"/>
</g>
<!-- nid&#45;09&#45;ampin&#45;&gt;nid&#45;09 -->
<g id="edge7" class="edge">
<title>nid&#45;09&#45;ampin&#45;&gt;nid&#45;09</title>
<path fill="none" stroke="#c8c8c8" d="M1459.25,-1045C1509.3,-1045 1619.34,-1045 1679.5,-1045"/>
<polygon fill="#c8c8c8" stroke="#c8c8c8" points="1679.81,-1046.75 1684.81,-1045 1679.81,-1043.25 1679.81,-1046.75"/>
</g>
<!-- nid&#45;22 -->
<g id="node14" class="node">
<title>nid&#45;22</title>
<polygon fill="none" stroke="black" points="1179.41,-1045 1158.2,-1076.05 1115.79,-1076.05 1094.58,-1045 1115.79,-1013.95 1158.2,-1013.95 1179.41,-1045"/>
<text text-anchor="middle" x="1137" y="-1048.8" font-family="Times,serif" font-size="14.00">0x22</text>
<text text-anchor="middle" x="1137" y="-1033.8" font-family="Times,serif" font-size="14.00">Stereo</text>
</g>
<!-- nid&#45;22&#45;&gt;nid&#45;09&#45;ampin -->
<g id="edge8" class="edge">
<title>nid&#45;22&#45;&gt;nid&#45;09&#45;ampin</title>
<path fill="none" stroke="#333333" d="M1179.7,-1045C1242.48,-1045 1359.16,-1045 1408.38,-1045"/>
<polygon fill="#333333" stroke="#333333" points="1408.6,-1048.5 1418.6,-1045 1408.6,-1041.5 1408.6,-1048.5"/>
</g>
<!-- nid&#45;12&#45;out -->
<g id="node15" class="node">
<title>nid&#45;12&#45;out</title>
<polygon fill="none" stroke="green" points="472.54,-1107 328.54,-1107 328.54,-1039 472.54,-1039 472.54,-1107"/>
<text text-anchor="middle" x="400.54" y="-1091.8" font-family="Times,serif" font-size="14.00">0x12</text>
<text text-anchor="middle" x="400.54" y="-1076.8" font-family="Times,serif" font-size="14.00">[Fixed] Mic at Int N/A</text>
<text text-anchor="middle" x="400.54" y="-1061.8" font-family="Times,serif" font-size="14.00">Stereo</text>
<text text-anchor="middle" x="400.54" y="-1046.8" font-family="Times,serif" font-size="14.00">IN</text>
</g>
<!-- nid&#45;12&#45;out&#45;&gt;nid&#45;24 -->
<g id="edge42" class="edge">
<title>nid&#45;12&#45;out&#45;&gt;nid&#45;24</title>
<path fill="none" stroke="#333333" d="M472.62,-1106.5C548.2,-1142.13 666.3,-1197.79 736.34,-1230.8"/>
<polygon fill="#333333" stroke="#333333" points="734.94,-1234.01 745.47,-1235.11 737.92,-1227.68 734.94,-1234.01"/>
</g>
<!-- nid&#45;23&#45;ampin&#45;18 -->
<g id="node39" class="node">
<title>nid&#45;23&#45;ampin&#45;18</title>
<polygon fill="none" stroke="#0000ff" points="878.42,-847 753.35,-870 753.35,-824 878.42,-847"/>
<text text-anchor="middle" x="795.04" y="-843.3" font-family="Times,serif" font-size="14.00">4 (0x12)</text>
</g>
<!-- nid&#45;12&#45;out&#45;&gt;nid&#45;23&#45;ampin&#45;18 -->
<g id="edge41" class="edge">
<title>nid&#45;12&#45;out&#45;&gt;nid&#45;23&#45;ampin&#45;18</title>
<path fill="none" stroke="#333333" d="M459.49,-1038.86C473.94,-1030.2 489.36,-1020.84 503.54,-1012 593.49,-955.89 609.15,-930.27 703.54,-882 716.21,-875.52 730.38,-869.5 743.67,-864.35"/>
<polygon fill="#333333" stroke="#333333" points="745.05,-867.57 753.16,-860.76 742.57,-861.03 745.05,-867.57"/>
</g>
<!-- nid&#45;13&#45;out -->
<g id="node16" class="node">
<title>nid&#45;13&#45;out</title>
<polygon fill="none" stroke="green" points="484.54,-1207 316.54,-1207 316.54,-1139 484.54,-1139 484.54,-1207"/>
<text text-anchor="middle" x="400.54" y="-1191.8" font-family="Times,serif" font-size="14.00">0x13</text>
<text text-anchor="middle" x="400.54" y="-1176.8" font-family="Times,serif" font-size="14.00">[N/A] Line Out at Ext N/A</text>
<text text-anchor="middle" x="400.54" y="-1161.8" font-family="Times,serif" font-size="14.00">Stereo</text>
<text text-anchor="middle" x="400.54" y="-1146.8" font-family="Times,serif" font-size="14.00">IN</text>
</g>
<!-- nid&#45;13&#45;out&#45;&gt;nid&#45;24 -->
<g id="edge43" class="edge">
<title>nid&#45;13&#45;out&#45;&gt;nid&#45;24</title>
<path fill="none" stroke="gray" stroke-dasharray="5,2" d="M484.78,-1191.03C561.62,-1207.67 673.52,-1231.9 739.54,-1246.2"/>
<polygon fill="gray" stroke="gray" points="738.82,-1249.62 749.34,-1248.32 740.3,-1242.78 738.82,-1249.62"/>
</g>
<!-- nid&#45;22&#45;ampin&#45;19 -->
<g id="node34" class="node">
<title>nid&#45;22&#45;ampin&#45;19</title>
<polygon fill="none" stroke="#c8c8c8" points="878.42,-1173 753.35,-1196 753.35,-1150 878.42,-1173"/>
<text text-anchor="middle" x="795.04" y="-1169.3" font-family="Times,serif" font-size="14.00">4 (0x13)</text>
</g>
<!-- nid&#45;13&#45;out&#45;&gt;nid&#45;22&#45;ampin&#45;19 -->
<g id="edge31" class="edge">
<title>nid&#45;13&#45;out&#45;&gt;nid&#45;22&#45;ampin&#45;19</title>
<path fill="none" stroke="#333333" d="M484.78,-1173C563.06,-1173 677.74,-1173 743.22,-1173"/>
<polygon fill="#333333" stroke="#333333" points="743.29,-1176.5 753.29,-1173 743.29,-1169.5 743.29,-1176.5"/>
</g>
<!-- nid&#45;18&#45;out -->
<g id="node20" class="node">
<title>nid&#45;18&#45;out</title>
<polygon fill="none" stroke="green" points="483.04,-1299 318.04,-1299 318.04,-1231 483.04,-1231 483.04,-1299"/>
<text text-anchor="middle" x="400.54" y="-1283.8" font-family="Times,serif" font-size="14.00">0x18</text>
<text text-anchor="middle" x="400.54" y="-1268.8" font-family="Times,serif" font-size="14.00">[N/A] Speaker at Ext Rear</text>
<text text-anchor="middle" x="400.54" y="-1253.8" font-family="Times,serif" font-size="14.00">Stereo</text>
<text text-anchor="middle" x="400.54" y="-1238.8" font-family="Times,serif" font-size="14.00">IN Detect</text>
</g>
<!-- nid&#45;18&#45;out&#45;&gt;nid&#45;24 -->
<g id="edge44" class="edge">
<title>nid&#45;18&#45;out&#45;&gt;nid&#45;24</title>
<path fill="none" stroke="gray" stroke-dasharray="5,2" d="M483.34,-1263.54C561.18,-1262.15 675.95,-1260.11 742.02,-1258.93"/>
<polygon fill="gray" stroke="gray" points="742.25,-1262.42 752.19,-1258.75 742.13,-1255.43 742.25,-1262.42"/>
</g>
<!-- nid&#45;19&#45;out -->
<g id="node21" class="node">
<title>nid&#45;19&#45;out</title>
<polygon fill="none" stroke="green" points="474.54,-629 326.54,-629 326.54,-561 474.54,-561 474.54,-629"/>
<text text-anchor="middle" x="400.54" y="-613.8" font-family="Times,serif" font-size="14.00">0x19</text>
<text text-anchor="middle" x="400.54" y="-598.8" font-family="Times,serif" font-size="14.00">[Jack] Mic at Ext Right</text>
<text text-anchor="middle" x="400.54" y="-583.8" font-family="Times,serif" font-size="14.00">Stereo</text>
<text text-anchor="middle" x="400.54" y="-568.8" font-family="Times,serif" font-size="14.00">IN Detect</text>
</g>
<!-- nid&#45;22&#45;ampin&#45;25 -->
<g id="node30" class="node">
<title>nid&#45;22&#45;ampin&#45;25</title>
<polygon fill="none" stroke="#c8c8c8" points="878.42,-917 753.35,-940 753.35,-894 878.42,-917"/>
<text text-anchor="middle" x="795.04" y="-913.3" font-family="Times,serif" font-size="14.00">0 (0x19)</text>
</g>
<!-- nid&#45;19&#45;out&#45;&gt;nid&#45;22&#45;ampin&#45;25 -->
<g id="edge27" class="edge">
<title>nid&#45;19&#45;out&#45;&gt;nid&#45;22&#45;ampin&#45;25</title>
<path fill="none" stroke="#333333" d="M474.56,-626.13C484.71,-631.77 494.68,-638.08 503.54,-645 612.18,-729.81 591.32,-801.98 703.54,-882 715.46,-890.5 729.72,-897.26 743.35,-902.49"/>
<polygon fill="#333333" stroke="#333333" points="742.53,-905.91 753.12,-906.02 744.91,-899.33 742.53,-905.91"/>
</g>
<!-- nid&#45;23&#45;ampin&#45;25 -->
<g id="node35" class="node">
<title>nid&#45;23&#45;ampin&#45;25</title>
<polygon fill="none" stroke="#c8c8c8" points="878.42,-591 753.35,-614 753.35,-568 878.42,-591"/>
<text text-anchor="middle" x="795.04" y="-587.3" font-family="Times,serif" font-size="14.00">0 (0x19)</text>
</g>
<!-- nid&#45;19&#45;out&#45;&gt;nid&#45;23&#45;ampin&#45;25 -->
<g id="edge37" class="edge">
<title>nid&#45;19&#45;out&#45;&gt;nid&#45;23&#45;ampin&#45;25</title>
<path fill="none" stroke="#333333" d="M474.9,-594.25C553.1,-593.46 674.84,-592.21 743.14,-591.52"/>
<polygon fill="#333333" stroke="#333333" points="743.26,-595.02 753.22,-591.42 743.19,-588.02 743.26,-595.02"/>
</g>
<!-- nid&#45;1a&#45;out -->
<g id="node22" class="node">
<title>nid&#45;1a&#45;out</title>
<polygon fill="none" stroke="green" points="483.04,-1000 318.04,-1000 318.04,-932 483.04,-932 483.04,-1000"/>
<text text-anchor="middle" x="400.54" y="-984.8" font-family="Times,serif" font-size="14.00">0x1a</text>
<text text-anchor="middle" x="400.54" y="-969.8" font-family="Times,serif" font-size="14.00">[N/A] Speaker at Ext Rear</text>
<text text-anchor="middle" x="400.54" y="-954.8" font-family="Times,serif" font-size="14.00">Stereo</text>
<text text-anchor="middle" x="400.54" y="-939.8" font-family="Times,serif" font-size="14.00">IN Detect</text>
</g>
<!-- nid&#45;22&#45;ampin&#45;26 -->
<g id="node31" class="node">
<title>nid&#45;22&#45;ampin&#45;26</title>
<polygon fill="none" stroke="#c8c8c8" points="878.42,-1109 753.35,-1132 753.35,-1086 878.42,-1109"/>
<text text-anchor="middle" x="795.04" y="-1105.3" font-family="Times,serif" font-size="14.00">1 (0x1a)</text>
</g>
<!-- nid&#45;1a&#45;out&#45;&gt;nid&#45;22&#45;ampin&#45;26 -->
<g id="edge28" class="edge">
<title>nid&#45;1a&#45;out&#45;&gt;nid&#45;22&#45;ampin&#45;26</title>
<path fill="none" stroke="#333333" d="M483.15,-996.31C543.86,-1018.78 628.79,-1050.05 703.54,-1077 716.41,-1081.64 730.33,-1086.59 743.3,-1091.18"/>
<polygon fill="#333333" stroke="#333333" points="742.41,-1094.58 753,-1094.61 744.74,-1087.98 742.41,-1094.58"/>
</g>
<!-- nid&#45;23&#45;ampin&#45;26 -->
<g id="node36" class="node">
<title>nid&#45;23&#45;ampin&#45;26</title>
<polygon fill="none" stroke="#c8c8c8" points="878.42,-783 753.35,-806 753.35,-760 878.42,-783"/>
<text text-anchor="middle" x="795.04" y="-779.3" font-family="Times,serif" font-size="14.00">1 (0x1a)</text>
</g>
<!-- nid&#45;1a&#45;out&#45;&gt;nid&#45;23&#45;ampin&#45;26 -->
<g id="edge38" class="edge">
<title>nid&#45;1a&#45;out&#45;&gt;nid&#45;23&#45;ampin&#45;26</title>
<path fill="none" stroke="#333333" d="M464.1,-931.87C524.44,-899.63 618.84,-850.99 703.54,-815 716.25,-809.6 730.22,-804.34 743.29,-799.7"/>
<polygon fill="#333333" stroke="#333333" points="744.8,-802.88 753.08,-796.28 742.49,-796.27 744.8,-802.88"/>
</g>
<!-- nid&#45;1b&#45;ampout -->
<g id="node24" class="node">
<title>nid&#45;1b&#45;ampout</title>
<polygon fill="none" stroke="#c8c8c8" points="1164,-234 1123.5,-252 1123.5,-216 1164,-234"/>
</g>
<!-- nid&#45;1b&#45;in&#45;&gt;nid&#45;1b&#45;ampout -->
<g id="edge15" class="edge">
<title>nid&#45;1b&#45;in&#45;&gt;nid&#45;1b&#45;ampout</title>
<path fill="none" stroke="#c8c8c8" d="M877.9,-234C957.98,-234 1074.11,-234 1118.16,-234"/>
<polygon fill="#c8c8c8" stroke="#c8c8c8" points="1118.41,-235.75 1123.41,-234 1118.41,-232.25 1118.41,-235.75"/>
</g>
<!-- nid&#45;1b&#45;out -->
<g id="node25" class="node">
<title>nid&#45;1b&#45;out</title>
<polygon fill="none" stroke="green" points="483.04,-878 318.04,-878 318.04,-810 483.04,-810 483.04,-878"/>
<text text-anchor="middle" x="400.54" y="-862.8" font-family="Times,serif" font-size="14.00">0x1b</text>
<text text-anchor="middle" x="400.54" y="-847.8" font-family="Times,serif" font-size="14.00">[N/A] Speaker at Ext Rear</text>
<text text-anchor="middle" x="400.54" y="-832.8" font-family="Times,serif" font-size="14.00">Stereo</text>
<text text-anchor="middle" x="400.54" y="-817.8" font-family="Times,serif" font-size="14.00">IN OUT EAPD Detect</text>
</g>
<!-- nid&#45;22&#45;ampin&#45;27 -->
<g id="node32" class="node">
<title>nid&#45;22&#45;ampin&#45;27</title>
<polygon fill="none" stroke="#c8c8c8" points="878.42,-1045 753.35,-1068 753.35,-1022 878.42,-1045"/>
<text text-anchor="middle" x="795.04" y="-1041.3" font-family="Times,serif" font-size="14.00">2 (0x1b)</text>
</g>
<!-- nid&#45;1b&#45;out&#45;&gt;nid&#45;22&#45;ampin&#45;27 -->
<g id="edge29" class="edge">
<title>nid&#45;1b&#45;out&#45;&gt;nid&#45;22&#45;ampin&#45;27</title>
<path fill="none" stroke="#333333" d="M455.74,-878.05C515.08,-914.44 613.77,-972.37 703.54,-1013 716.12,-1018.69 730.04,-1024.06 743.12,-1028.7"/>
<polygon fill="#333333" stroke="#333333" points="742.32,-1032.13 752.91,-1032.11 744.62,-1025.52 742.32,-1032.13"/>
</g>
<!-- nid&#45;23&#45;ampin&#45;27 -->
<g id="node37" class="node">
<title>nid&#45;23&#45;ampin&#45;27</title>
<polygon fill="none" stroke="#c8c8c8" points="878.42,-719 753.35,-742 753.35,-696 878.42,-719"/>
<text text-anchor="middle" x="795.04" y="-715.3" font-family="Times,serif" font-size="14.00">2 (0x1b)</text>
</g>
<!-- nid&#45;1b&#45;out&#45;&gt;nid&#45;23&#45;ampin&#45;27 -->
<g id="edge39" class="edge">
<title>nid&#45;1b&#45;out&#45;&gt;nid&#45;23&#45;ampin&#45;27</title>
<path fill="none" stroke="#333333" d="M483.34,-817.95C561.77,-792.97 677.68,-756.06 743.51,-735.09"/>
<polygon fill="#333333" stroke="#333333" points="744.77,-738.36 753.24,-731.99 742.64,-731.69 744.77,-738.36"/>
</g>
<!-- nid&#45;1b&#45;ampin -->
<g id="node26" class="node">
<title>nid&#45;1b&#45;ampin</title>
<polygon fill="none" stroke="#0000ff" points="79.77,-844 39.27,-862 39.27,-826 79.77,-844"/>
</g>
<!-- nid&#45;1b&#45;ampin&#45;&gt;nid&#45;1b&#45;out -->
<g id="edge16" class="edge">
<title>nid&#45;1b&#45;ampin&#45;&gt;nid&#45;1b&#45;out</title>
<path fill="none" stroke="#0000ff" d="M80.04,-844C129,-844 236.19,-844 312.9,-844"/>
<polygon fill="#0000ff" stroke="#0000ff" points="312.91,-845.75 317.91,-844 312.91,-842.25 312.91,-845.75"/>
</g>
<!-- nid&#45;1d&#45;out -->
<g id="node27" class="node">
<title>nid&#45;1d&#45;out</title>
<polygon fill="none" stroke="green" points="495.54,-725 305.54,-725 305.54,-657 495.54,-657 495.54,-725"/>
<text text-anchor="middle" x="400.54" y="-709.8" font-family="Times,serif" font-size="14.00">0x1d</text>
<text text-anchor="middle" x="400.54" y="-694.8" font-family="Times,serif" font-size="14.00">[N/A] Modem Line at Ext N/A</text>
<text text-anchor="middle" x="400.54" y="-679.8" font-family="Times,serif" font-size="14.00">Mono</text>
<text text-anchor="middle" x="400.54" y="-664.8" font-family="Times,serif" font-size="14.00">IN</text>
</g>
<!-- nid&#45;22&#45;ampin&#45;29 -->
<g id="node33" class="node">
<title>nid&#45;22&#45;ampin&#45;29</title>
<polygon fill="none" stroke="#c8c8c8" points="878.42,-981 753.35,-1004 753.35,-958 878.42,-981"/>
<text text-anchor="middle" x="795.04" y="-977.3" font-family="Times,serif" font-size="14.00">3 (0x1d)</text>
</g>
<!-- nid&#45;1d&#45;out&#45;&gt;nid&#45;22&#45;ampin&#45;29 -->
<g id="edge30" class="edge">
<title>nid&#45;1d&#45;out&#45;&gt;nid&#45;22&#45;ampin&#45;29</title>
<path fill="none" stroke="#333333" d="M433.27,-725.25C485.12,-779.47 593.35,-885.4 703.54,-949 715.85,-956.11 730.01,-962.03 743.41,-966.77"/>
<polygon fill="#333333" stroke="#333333" points="742.4,-970.12 753,-970.01 744.64,-963.49 742.4,-970.12"/>
</g>
<!-- nid&#45;23&#45;ampin&#45;29 -->
<g id="node38" class="node">
<title>nid&#45;23&#45;ampin&#45;29</title>
<polygon fill="none" stroke="#c8c8c8" points="878.42,-655 753.35,-678 753.35,-632 878.42,-655"/>
<text text-anchor="middle" x="795.04" y="-651.3" font-family="Times,serif" font-size="14.00">3 (0x1d)</text>
</g>
<!-- nid&#45;1d&#45;out&#45;&gt;nid&#45;23&#45;ampin&#45;29 -->
<g id="edge40" class="edge">
<title>nid&#45;1d&#45;out&#45;&gt;nid&#45;23&#45;ampin&#45;29</title>
<path fill="none" stroke="#333333" d="M495.55,-682.38C573.32,-675.24 680.81,-665.39 743.32,-659.65"/>
<polygon fill="#333333" stroke="#333333" points="743.69,-663.13 753.33,-658.73 743.05,-656.16 743.69,-663.13"/>
</g>
<!-- nid&#45;22&#45;ampin&#45;25&#45;&gt;nid&#45;22 -->
<g id="edge22" class="edge">
<title>nid&#45;22&#45;ampin&#45;25&#45;&gt;nid&#45;22</title>
<path fill="none" stroke="#c8c8c8" d="M825.05,-927.03C842.84,-933.24 866.06,-941.44 886.54,-949 961.88,-976.81 1049.35,-1010.89 1098.13,-1030.06"/>
<polygon fill="#c8c8c8" stroke="#c8c8c8" points="1097.72,-1031.78 1103.02,-1031.98 1099,-1028.52 1097.72,-1031.78"/>
</g>
<!-- nid&#45;22&#45;ampin&#45;26&#45;&gt;nid&#45;22 -->
<g id="edge23" class="edge">
<title>nid&#45;22&#45;ampin&#45;26&#45;&gt;nid&#45;22</title>
<path fill="none" stroke="#c8c8c8" d="M837.05,-1101.28C902.19,-1089.02 1028.65,-1065.21 1094.25,-1052.86"/>
<polygon fill="#c8c8c8" stroke="#c8c8c8" points="1094.67,-1054.56 1099.26,-1051.92 1094.02,-1051.12 1094.67,-1054.56"/>
</g>
<!-- nid&#45;22&#45;ampin&#45;27&#45;&gt;nid&#45;22 -->
<g id="edge24" class="edge">
<title>nid&#45;22&#45;ampin&#45;27&#45;&gt;nid&#45;22</title>
<path fill="none" stroke="#c8c8c8" d="M878.33,-1045C944.39,-1045 1034.78,-1045 1089.07,-1045"/>
<polygon fill="#c8c8c8" stroke="#c8c8c8" points="1089.21,-1046.75 1094.21,-1045 1089.21,-1043.25 1089.21,-1046.75"/>
</g>
<!-- nid&#45;22&#45;ampin&#45;29&#45;&gt;nid&#45;22 -->
<g id="edge25" class="edge">
<title>nid&#45;22&#45;ampin&#45;29&#45;&gt;nid&#45;22</title>
<path fill="none" stroke="#c8c8c8" d="M837.05,-988.72C902.19,-1000.98 1028.65,-1024.79 1094.25,-1037.14"/>
<polygon fill="#c8c8c8" stroke="#c8c8c8" points="1094.02,-1038.88 1099.26,-1038.08 1094.67,-1035.44 1094.02,-1038.88"/>
</g>
<!-- nid&#45;22&#45;ampin&#45;19&#45;&gt;nid&#45;22 -->
<g id="edge26" class="edge">
<title>nid&#45;22&#45;ampin&#45;19&#45;&gt;nid&#45;22</title>
<path fill="none" stroke="#c8c8c8" d="M825.05,-1162.97C842.84,-1156.76 866.06,-1148.56 886.54,-1141 961.88,-1113.19 1049.35,-1079.11 1098.13,-1059.94"/>
<polygon fill="#c8c8c8" stroke="#c8c8c8" points="1099,-1061.48 1103.02,-1058.02 1097.72,-1058.22 1099,-1061.48"/>
</g>
<!-- nid&#45;23&#45;ampin&#45;25&#45;&gt;nid&#45;23 -->
<g id="edge32" class="edge">
<title>nid&#45;23&#45;ampin&#45;25&#45;&gt;nid&#45;23</title>
<path fill="none" stroke="#c8c8c8" d="M825.05,-601.03C842.84,-607.24 866.06,-615.44 886.54,-623 961.88,-650.81 1049.35,-684.89 1098.13,-704.06"/>
<polygon fill="#c8c8c8" stroke="#c8c8c8" points="1097.72,-705.78 1103.02,-705.98 1099,-702.52 1097.72,-705.78"/>
</g>
<!-- nid&#45;23&#45;ampin&#45;26&#45;&gt;nid&#45;23 -->
<g id="edge33" class="edge">
<title>nid&#45;23&#45;ampin&#45;26&#45;&gt;nid&#45;23</title>
<path fill="none" stroke="#c8c8c8" d="M837.05,-775.28C902.19,-763.02 1028.65,-739.21 1094.25,-726.86"/>
<polygon fill="#c8c8c8" stroke="#c8c8c8" points="1094.67,-728.56 1099.26,-725.92 1094.02,-725.12 1094.67,-728.56"/>
</g>
<!-- nid&#45;23&#45;ampin&#45;27&#45;&gt;nid&#45;23 -->
<g id="edge34" class="edge">
<title>nid&#45;23&#45;ampin&#45;27&#45;&gt;nid&#45;23</title>
<path fill="none" stroke="#c8c8c8" d="M878.33,-719C944.39,-719 1034.78,-719 1089.07,-719"/>
<polygon fill="#c8c8c8" stroke="#c8c8c8" points="1089.21,-720.75 1094.21,-719 1089.21,-717.25 1089.21,-720.75"/>
</g>
<!-- nid&#45;23&#45;ampin&#45;29&#45;&gt;nid&#45;23 -->
<g id="edge35" class="edge">
<title>nid&#45;23&#45;ampin&#45;29&#45;&gt;nid&#45;23</title>
<path fill="none" stroke="#c8c8c8" d="M837.05,-662.72C902.19,-674.98 1028.65,-698.79 1094.25,-711.14"/>
<polygon fill="#c8c8c8" stroke="#c8c8c8" points="1094.02,-712.88 1099.26,-712.08 1094.67,-709.44 1094.02,-712.88"/>
</g>
<!-- nid&#45;23&#45;ampin&#45;18&#45;&gt;nid&#45;23 -->
<g id="edge36" class="edge">
<title>nid&#45;23&#45;ampin&#45;18&#45;&gt;nid&#45;23</title>
<path fill="none" stroke="#0000ff" d="M825.05,-836.97C842.84,-830.76 866.06,-822.56 886.54,-815 961.88,-787.19 1049.35,-753.11 1098.13,-733.94"/>
<polygon fill="#0000ff" stroke="#0000ff" points="1099,-735.48 1103.02,-732.02 1097.72,-732.22 1099,-735.48"/>
</g>
</g>
</svg>
